<svg width="28" height="28" viewBox="0 0 28 28" fill="none" xmlns="http://www.w3.org/2000/svg">
<path d="M13.1695 0C9.36752 0.0102371 5.71492 1.39848 2.9661 3.878V1.4C2.9661 1.0287 2.80985 0.672601 2.53173 0.41005C2.2536 0.1475 1.87638 0 1.48305 0C1.08972 0 0.712501 0.1475 0.434375 0.41005C0.156249 0.672601 0 1.0287 0 1.4V7.7C0 8.0713 0.156249 8.4274 0.434375 8.68995C0.712501 8.9525 1.08972 9.1 1.48305 9.1H8.15678C8.55011 9.1 8.92733 8.9525 9.20545 8.68995C9.48358 8.4274 9.63983 8.0713 9.63983 7.7C9.63983 7.3287 9.48358 6.9726 9.20545 6.71005C8.92733 6.4475 8.55011 6.3 8.15678 6.3H4.59746C5.94957 4.95181 7.63549 3.94207 9.50358 3.36159C11.3717 2.78112 13.3633 2.64813 15.2994 2.97458C17.2354 3.30104 19.0551 4.0767 20.5948 5.23179C22.1345 6.38687 23.3458 7.88516 24.1199 9.59186C24.894 11.2986 25.2065 13.1601 25.0293 15.0091C24.8521 16.8581 24.1908 18.6366 23.1048 20.1844C22.0189 21.7323 20.5423 23.001 18.8081 23.8765C17.0738 24.752 15.1362 25.2068 13.1695 25.2C12.7762 25.2 12.3989 25.3475 12.1208 25.61C11.8427 25.8726 11.6864 26.2287 11.6864 26.6C11.6864 26.9713 11.8427 27.3274 12.1208 27.59C12.3989 27.8525 12.7762 28 13.1695 28C17.1028 28 20.875 26.525 23.6562 23.8995C26.4375 21.274 28 17.713 28 14C28 10.287 26.4375 6.72601 23.6562 4.1005C20.875 1.475 17.1028 0 13.1695 0ZM13.1695 8.4C12.7762 8.4 12.3989 8.5475 12.1208 8.81005C11.8427 9.0726 11.6864 9.4287 11.6864 9.8V14C11.6864 14.3713 11.8427 14.7274 12.1208 14.9899C12.3989 15.2525 12.7762 15.4 13.1695 15.4H16.1356C16.5289 15.4 16.9061 15.2525 17.1843 14.9899C17.4624 14.7274 17.6186 14.3713 17.6186 14C17.6186 13.6287 17.4624 13.2726 17.1843 13.0101C16.9061 12.7475 16.5289 12.6 16.1356 12.6H14.6525V9.8C14.6525 9.4287 14.4963 9.0726 14.2182 8.81005C13.94 8.5475 13.5628 8.4 13.1695 8.4Z" fill="black"/>
</svg>
