<svg width="28" height="28" viewBox="0 0 28 28" fill="none" xmlns="http://www.w3.org/2000/svg">
<path d="M26.4444 8.42343L17.1111 1.06823C16.2556 0.380313 15.1479 0 14 0C12.8522 0 11.7445 0.380313 10.889 1.06823L1.55569 8.42343C1.0616 8.82065 0.667321 9.30795 0.399101 9.85286C0.130881 10.3978 -0.00512172 10.9878 0.000147456 11.5836V23.805C0.000147456 24.9176 0.491809 25.9846 1.36697 26.7713C2.24214 27.558 3.42911 28 4.66678 28H23.3333C24.571 28 25.758 27.558 26.6331 26.7713C27.5083 25.9846 27.9999 24.9176 27.9999 23.805V11.5697C28.003 10.9762 27.8659 10.3888 27.5978 9.84648C27.3296 9.30412 26.9365 8.81909 26.4444 8.42343ZM17.1111 25.2033H10.889V18.2117C10.889 17.8409 11.0528 17.4852 11.3446 17.2229C11.6363 16.9607 12.0319 16.8134 12.4445 16.8134H15.5556C15.9681 16.8134 16.3638 16.9607 16.6555 17.2229C16.9472 17.4852 17.1111 17.8409 17.1111 18.2117V25.2033ZM24.8889 23.805C24.8889 24.1759 24.725 24.5315 24.4333 24.7938C24.1415 25.056 23.7459 25.2033 23.3333 25.2033H20.2222V18.2117C20.2222 17.0991 19.7306 16.0321 18.8554 15.2454C17.9802 14.4587 16.7933 14.0167 15.5556 14.0167H12.4445C11.2068 14.0167 10.0199 14.4587 9.14469 15.2454C8.26953 16.0321 7.77787 17.0991 7.77787 18.2117V25.2033H4.66678C4.25423 25.2033 3.85857 25.056 3.56685 24.7938C3.27512 24.5315 3.11124 24.1759 3.11124 23.805V11.5697C3.11152 11.3711 3.15883 11.1749 3.25002 10.9941C3.34121 10.8133 3.47419 10.652 3.64012 10.5209L12.9734 3.1797C13.2573 2.95552 13.6222 2.83189 14 2.83189C14.3779 2.83189 14.7428 2.95552 15.0267 3.1797L24.36 10.5209C24.5259 10.652 24.6589 10.8133 24.7501 10.9941C24.8413 11.1749 24.8886 11.3711 24.8889 11.5697V23.805Z" fill="black"/>
</svg>
