<svg width="28" height="28" viewBox="0 0 28 28" fill="none" xmlns="http://www.w3.org/2000/svg">
<path fill-rule="evenodd" clip-rule="evenodd" d="M9.8 0H4.2C3.0856 0 2.0174 0.4424 1.2306 1.2306C0.4424 2.0174 0 3.0856 0 4.2C0 5.6882 0 7.6524 0 9.8C0 10.5728 0.6272 11.2 1.4 11.2C2.1728 11.2 2.8 10.5728 2.8 9.8V4.2C2.8 3.829 2.947 3.472 3.2102 3.2102C3.472 2.947 3.829 2.8 4.2 2.8H9.8C10.5728 2.8 11.2 2.1728 11.2 1.4C11.2 0.6272 10.5728 0 9.8 0ZM0 16.8V23.8C0 24.9144 0.4424 25.9826 1.2306 26.7694C2.0174 27.5576 3.0856 28 4.2 28C5.3578 28 6.804 28 8.4 28C9.1728 28 9.8 27.3728 9.8 26.6C9.8 25.8272 9.1728 25.2 8.4 25.2H4.2C3.829 25.2 3.472 25.053 3.2102 24.7898C2.947 24.528 2.8 24.171 2.8 23.8V16.8C2.8 16.0272 2.1728 15.4 1.4 15.4C0.6272 15.4 0 16.0272 0 16.8ZM18.2 28H23.8C24.9144 28 25.9826 27.5576 26.7694 26.7694C27.5576 25.9826 28 24.9144 28 23.8C28 22.3118 28 20.3476 28 18.2C28 17.4272 27.3728 16.8 26.6 16.8C25.8272 16.8 25.2 17.4272 25.2 18.2V23.8C25.2 24.171 25.053 24.528 24.7898 24.7898C24.528 25.053 24.171 25.2 23.8 25.2H18.2C17.4272 25.2 16.8 25.8272 16.8 26.6C16.8 27.3728 17.4272 28 18.2 28ZM28 9.8V4.2C28 3.0856 27.5576 2.0174 26.7694 1.2306C25.9826 0.4424 24.9144 0 23.8 0C22.3118 0 20.3476 0 18.2 0C17.4272 0 16.8 0.6272 16.8 1.4C16.8 2.1728 17.4272 2.8 18.2 2.8H23.8C24.171 2.8 24.528 2.947 24.7898 3.2102C25.053 3.472 25.2 3.829 25.2 4.2V9.8C25.2 10.5728 25.8272 11.2 26.6 11.2C27.3728 11.2 28 10.5728 28 9.8ZM7 15.4H21C21.7728 15.4 22.4 14.7728 22.4 14C22.4 13.2272 21.7728 12.6 21 12.6H7C6.2272 12.6 5.6 13.2272 5.6 14C5.6 14.7728 6.2272 15.4 7 15.4Z" fill="black"/>
</svg>
